# 3ds Max Wavefront OBJ Exporter v0.97b - (c)2007 guruware
# File Created: 16.01.2018 20:05:05

mtllib Wall_Low.mtl

#
# object Warriors_Low
#

v  -2.5354 -3.1333 0.0387
v  3.7312 -3.1333 0.0387
v  3.7312 3.1333 0.0387
v  -2.5354 3.1333 0.0387
# 4 vertices

vn 0.0000 0.0000 1.0000
# 1 vertex normals

vt 0.0230 0.0230 0.0000
vt 0.9770 0.0230 0.0000
vt 0.9770 0.9770 0.0000
vt 0.0230 0.9770 0.0000
# 4 texture coords

o Warriors_Low
g Warriors_Low
usemtl default
s 1
f 1/1/1 2/2/1 3/3/1 
f 3/3/1 4/4/1 1/1/1 
# 2 faces

